<svg width="26" height="22" viewBox="0 0 26 22" fill="none" xmlns="http://www.w3.org/2000/svg">
<path d="M20.7 3.12503C25.0868 7.40909 25.1132 14.6193 20.7 18.8752M2 14.3291V7.67009C2 7.02433 2.4928 6.50008 3.1 6.50008H7.0446C7.19016 6.49955 7.33412 6.46887 7.46778 6.4099C7.60144 6.35093 7.72204 6.26488 7.8223 6.15695L11.1223 2.34539C11.8153 1.60738 13 2.13052 13 3.17341V18.8269C13 19.8776 11.801 20.3963 11.1124 19.6436L7.8234 15.8534C7.72285 15.7424 7.60103 15.6538 7.46553 15.593C7.33003 15.5322 7.18375 15.5006 7.0358 15.5002H3.1C2.4928 15.5002 2 14.9759 2 14.3291ZM17.4 7.06258C18.8663 9.06286 18.8663 12.9374 17.4 14.9377V7.06258Z" stroke="white" stroke-width="3" stroke-linecap="round" stroke-linejoin="round"/>
</svg>
