<svg width="34" height="34" viewBox="0 0 34 34" fill="none" xmlns="http://www.w3.org/2000/svg">
<path d="M24.0833 1.41667H4.24999C3.49854 1.41667 2.77787 1.71518 2.24652 2.24654C1.71517 2.77789 1.41666 3.49856 1.41666 4.25001V17H4.24999V4.25001H24.0833V1.41667Z" fill="black"/>
<path d="M29.75 7.08333H9.91668C9.16523 7.08333 8.44456 7.38184 7.91321 7.91319C7.38185 8.44455 7.08334 9.16522 7.08334 9.91666V24.0833C7.08334 24.8348 7.38185 25.5554 7.91321 26.0868C8.44456 26.6182 9.16523 26.9167 9.91668 26.9167H17.7508V29.0842H15.5833V31.1667H24.0833V29.07H21.93V26.9167H29.75C30.5015 26.9167 31.2221 26.6182 31.7535 26.0868C32.2848 25.5554 32.5833 24.8348 32.5833 24.0833V9.91666C32.5833 9.16522 32.2848 8.44455 31.7535 7.91319C31.2221 7.38184 30.5015 7.08333 29.75 7.08333ZM29.75 24.0833H9.91668V9.91666H29.75V24.0833Z" fill="black"/>
</svg>
