<svg width="37" height="28" viewBox="0 0 37 28" fill="none" xmlns="http://www.w3.org/2000/svg">
<path d="M31.3219 2.32221C28.9632 1.24895 26.4349 0.45567 23.7911 0.00458885C23.7675 2.81255e-05 23.7431 0.00296722 23.7213 0.0129997C23.6995 0.0230322 23.6813 0.0396617 23.6693 0.0605852C23.3455 0.634547 22.9848 1.38272 22.732 1.97379C19.9279 1.55108 17.0771 1.55108 14.2731 1.97379C13.9915 1.31873 13.6739 0.680004 13.3219 0.0605852C13.31 0.0394041 13.2919 0.0223984 13.2702 0.0118375C13.2484 0.00127651 13.224 -0.00233756 13.2001 0.00147779C10.5578 0.452559 8.02951 1.24584 5.66929 2.32066C5.64898 2.32925 5.63177 2.34391 5.61995 2.36266C0.822426 9.47886 -0.492578 16.4193 0.153362 23.2726C0.155159 23.2894 0.160323 23.3056 0.168539 23.3203C0.176755 23.3351 0.187851 23.3479 0.201152 23.3582C3.00134 25.4151 6.12458 26.9821 9.44009 27.9934C9.46321 28.0006 9.48793 28.0006 9.51103 27.9934C9.53413 27.9861 9.55454 27.9721 9.56959 27.953C10.283 26.9903 10.9153 25.9689 11.4596 24.8996C11.4672 24.885 11.4715 24.8689 11.4724 24.8524C11.4732 24.836 11.4706 24.8195 11.4646 24.8042C11.4586 24.7888 11.4494 24.775 11.4376 24.7635C11.4259 24.7521 11.4118 24.7433 11.3964 24.7379C10.4005 24.3595 9.4356 23.9028 8.51049 23.3722C8.49387 23.3626 8.47986 23.349 8.46973 23.3326C8.45959 23.3162 8.45365 23.2976 8.45243 23.2783C8.4512 23.259 8.45474 23.2398 8.46273 23.2222C8.47071 23.2046 8.48288 23.1894 8.49816 23.1777C8.69241 23.0331 8.88665 22.8822 9.07164 22.7313C9.0883 22.7178 9.10836 22.7091 9.12959 22.7064C9.15082 22.7036 9.17239 22.7069 9.19189 22.7158C15.2458 25.4596 21.8024 25.4596 27.7854 22.7158C27.805 22.7063 27.8267 22.7027 27.8483 22.7051C27.8698 22.7076 27.8902 22.7161 27.9072 22.7298C28.0922 22.8822 28.2849 23.0331 28.4807 23.1777C28.4961 23.1891 28.5085 23.2042 28.5167 23.2216C28.5249 23.239 28.5288 23.2582 28.5279 23.2775C28.5269 23.2967 28.5213 23.3155 28.5115 23.332C28.5016 23.3485 28.4879 23.3623 28.4714 23.3722C27.5495 23.9072 26.5906 24.3599 25.584 24.7363C25.5685 24.742 25.5544 24.7509 25.5426 24.7625C25.5309 24.7741 25.5217 24.7881 25.5157 24.8035C25.5097 24.819 25.5071 24.8355 25.508 24.8521C25.5088 24.8687 25.5132 24.8849 25.5208 24.8996C26.0757 25.9682 26.7109 26.9855 27.4092 27.9514C27.4238 27.9712 27.444 27.9861 27.4672 27.9939C27.4903 28.0016 27.5153 28.002 27.5387 27.995C30.8599 26.9865 33.9883 25.4188 36.7915 23.3582C36.8052 23.3485 36.8167 23.336 36.8252 23.3215C36.8337 23.3071 36.8391 23.2909 36.8409 23.2742C37.6117 15.3507 35.549 8.46626 31.3697 2.36577C31.3594 2.34594 31.3425 2.33049 31.3219 2.32221ZM12.3646 19.0993C10.5424 19.0993 9.03927 17.4366 9.03927 15.3974C9.03927 13.3566 10.5131 11.6954 12.3646 11.6954C14.2299 11.6954 15.7191 13.3706 15.6898 15.3974C15.6898 17.4381 14.216 19.0993 12.3646 19.0993ZM24.659 19.0993C22.8352 19.0993 21.3337 17.4366 21.3337 15.3974C21.3337 13.3566 22.806 11.6954 24.659 11.6954C26.5243 11.6954 28.0136 13.3706 27.9843 15.3974C27.9843 17.4381 26.5259 19.0993 24.659 19.0993Z" fill="white"/>
</svg>
