<svg width="22" height="18" viewBox="0 0 22 18" fill="none" xmlns="http://www.w3.org/2000/svg">
<path d="M1.1 11.25C0.808262 11.25 0.528473 11.3685 0.322183 11.5795C0.115893 11.7905 4.35443e-07 12.0766 4.35443e-07 12.375C4.35443e-07 12.6734 0.115893 12.9595 0.322183 13.1705C0.528473 13.3815 0.808262 13.5 1.1 13.5C1.97521 13.5 2.81458 13.8556 3.43345 14.4885C4.05232 15.1214 4.4 15.9799 4.4 16.875C4.4 17.1734 4.51589 17.4595 4.72218 17.6705C4.92847 17.8815 5.20826 18 5.5 18C5.79174 18 6.07153 17.8815 6.27782 17.6705C6.48411 17.4595 6.6 17.1734 6.6 16.875C6.6 15.3832 6.02054 13.9524 4.98909 12.8975C3.95764 11.8426 2.55869 11.25 1.1 11.25ZM0.319 16.0763C0.166065 16.2339 0.0621956 16.4344 0.0204819 16.6524C-0.0212317 16.8704 0.00107749 17.0961 0.084598 17.3011C0.168119 17.5062 0.309113 17.6813 0.489811 17.8045C0.670509 17.9277 0.882825 17.9935 1.1 17.9935C1.31718 17.9935 1.52949 17.9277 1.71019 17.8045C1.89089 17.6813 2.03188 17.5062 2.1154 17.3011C2.19892 17.0961 2.22123 16.8704 2.17952 16.6524C2.13781 16.4344 2.03394 16.2339 1.881 16.0763C1.77874 15.9708 1.65708 15.8871 1.52303 15.83C1.38899 15.7729 1.24521 15.7435 1.1 15.7435C0.954787 15.7435 0.811011 15.7729 0.676966 15.83C0.542921 15.8871 0.42126 15.9708 0.319 16.0763ZM18.7 0H3.3C2.42479 0 1.58542 0.355579 0.966548 0.988515C0.347678 1.62145 4.35443e-07 2.47989 4.35443e-07 3.375C4.35443e-07 3.67337 0.115893 3.95952 0.322183 4.1705C0.528473 4.38147 0.808262 4.5 1.1 4.5C1.39174 4.5 1.67153 4.38147 1.87782 4.1705C2.08411 3.95952 2.2 3.67337 2.2 3.375C2.2 3.07663 2.31589 2.79048 2.52218 2.5795C2.72847 2.36853 3.00826 2.25 3.3 2.25H18.7C18.9917 2.25 19.2715 2.36853 19.4778 2.5795C19.6841 2.79048 19.8 3.07663 19.8 3.375V14.625C19.8 14.9234 19.6841 15.2095 19.4778 15.4205C19.2715 15.6315 18.9917 15.75 18.7 15.75H14.3C14.0083 15.75 13.7285 15.8685 13.5222 16.0795C13.3159 16.2905 13.2 16.5766 13.2 16.875C13.2 17.1734 13.3159 17.4595 13.5222 17.6705C13.7285 17.8815 14.0083 18 14.3 18H18.7C19.5752 18 20.4146 17.6444 21.0335 17.0115C21.6523 16.3786 22 15.5201 22 14.625V3.375C22 2.47989 21.6523 1.62145 21.0335 0.988515C20.4146 0.355579 19.5752 0 18.7 0ZM1.1 6.75C0.808262 6.75 0.528473 6.86853 0.322183 7.0795C0.115893 7.29048 4.35443e-07 7.57663 4.35443e-07 7.875C4.35443e-07 8.17337 0.115893 8.45952 0.322183 8.6705C0.528473 8.88147 0.808262 9 1.1 9C3.14217 9 5.10069 9.82969 6.54472 11.3065C7.98875 12.7834 8.8 14.7864 8.8 16.875C8.8 17.1734 8.91589 17.4595 9.12218 17.6705C9.32847 17.8815 9.60826 18 9.9 18C10.1917 18 10.4715 17.8815 10.6778 17.6705C10.8841 17.4595 11 17.1734 11 16.875C11 14.1897 9.95697 11.6143 8.10036 9.71554C6.24375 7.81674 3.72564 6.75 1.1 6.75Z" fill="white"/>
</svg>
