<svg width="34" height="34" viewBox="0 0 34 34" fill="none" xmlns="http://www.w3.org/2000/svg">
<path d="M16.2164 23.031C16.3758 22.2142 15.4195 21.0388 14.0648 19.797C12.677 18.522 10.8641 17.2005 9.85469 16.7025C8.41367 15.9056 7.08555 16.5829 6.78008 18.2099C6.44805 19.9497 6.78008 21.6232 7.74297 23.1173C8.42031 24.1466 9.42969 24.6247 10.625 24.7111C11.3953 24.7509 14.1113 24.8572 14.7223 24.6447C15.5125 24.3591 16.057 23.8611 16.2164 23.031ZM29.8297 24.4122C29.7862 24.3761 29.7344 24.3511 29.679 24.3395C29.6236 24.328 29.5662 24.3301 29.5119 24.3459C29.4575 24.3616 29.4078 24.3904 29.3671 24.4297C29.3264 24.4691 29.296 24.5178 29.2785 24.5716C28.7473 26.2583 26.3102 32.0423 17.85 32.64C7.90898 33.3372 23.1824 35.5353 27.5055 32.215C29.0129 31.0595 30.6664 29.8908 30.6 26.5439C30.5734 25.8732 30.2746 24.7715 29.8297 24.4122ZM33.9469 16.2841C33.927 15.029 33.3758 14.0661 32.2203 13.4818C32.0277 13.3954 31.8883 13.3025 31.8285 13.0568C31.4269 10.8055 30.5086 8.67811 29.1457 6.84181C29.0727 6.7422 28.9133 6.62931 28.9996 6.50978C29.5641 5.74611 28.9797 5.31447 28.5348 4.88947C23.7402 0.253867 18.1555 -1.08555 11.7805 0.871224C9.11758 1.68802 6.87305 3.23529 5.00703 5.34701C4.74141 5.63255 4.56211 5.9513 4.80781 6.3099C5.00703 6.57552 4.89414 6.72162 4.74141 6.92747C3.42656 8.76759 2.53672 10.799 2.13164 13.0176C2.08516 13.3031 1.93906 13.416 1.70664 13.5356C0.763672 14.0004 0.2125 14.7641 0.053125 15.7934L0 17.5525V18.9404C0 20.9857 1.39453 22.2872 3.43984 22.1943C3.95117 22.1744 4.2168 21.9087 4.23672 21.4306C4.36953 16.2841 4.07734 15.0954 4.48242 13.0767C6.11602 4.80912 15.559 0.333997 22.9301 4.34427C27.3195 6.7754 29.5973 10.5606 29.7234 15.5935C29.7766 17.4661 29.7234 19.3454 29.7234 21.2115C29.7234 21.6763 29.8695 22.0415 30.3477 22.1544C31.948 22.4865 33.6148 21.3576 33.8805 19.7173C34.073 18.5818 33.9469 17.4263 33.9469 16.2841ZM23.3484 25.0165C25.7723 25.2025 27.2863 23.124 27.2266 20.999C27.0871 17.9974 22.8305 19.9033 21.3961 20.4677C16.5352 22.3337 18.4078 24.1134 19.9219 24.5052L23.3484 25.0165Z" fill="white"/>
</svg>
