<svg width="32" height="32" viewBox="0 0 32 32" fill="none" xmlns="http://www.w3.org/2000/svg">
<path d="M16 0C11.7565 0 7.68687 1.68571 4.68629 4.68629C1.68571 7.68687 0 11.7565 0 16C0 20.2435 1.68571 24.3131 4.68629 27.3137C7.68687 30.3143 11.7565 32 16 32C20.2435 32 24.3131 30.3143 27.3137 27.3137C30.3143 24.3131 32 20.2435 32 16C32 11.7565 30.3143 7.68687 27.3137 4.68629C24.3131 1.68571 20.2435 0 16 0V0ZM22.1511 21.2444C22.1511 23.8578 20.7289 27.1111 14.9333 29.6C15.4667 22.1867 10.4533 23.04 9.24444 20.7111C9.35454 19.7476 9.70537 18.8274 10.2646 18.0351C10.8238 17.2429 11.5735 16.6042 12.4444 16.1778C9.68563 15.7046 7.11276 14.4735 5.01333 12.6222C5.10222 13.4578 5.50933 14.2293 6.15111 14.7733C4.76073 14.2492 3.55939 13.3204 2.70222 12.1067C3.54982 9.30915 5.24501 6.84378 7.55374 5.05094C9.86246 3.25809 12.6708 2.22621 15.5911 2.09778C14.0978 4.55111 12.9244 9.44 15.5911 12C12.8533 12.4444 11.1289 8.88889 9.61778 10.2933C7.60889 12.1778 10.2044 14.7556 15.6978 15.7689C21.5467 16.8178 22.2044 18.5778 22.1511 21.2444ZM24.5333 14.1333C23.9644 12.16 25.6356 10.1689 27.5378 8.55111C28.7257 10.2635 29.482 12.2378 29.742 14.3056C30.002 16.3734 29.7581 18.4735 29.0311 20.4267C27.6622 17.0667 25.1733 16.3022 24.5333 14.08V14.1333Z" fill="white"/>
</svg>
